<svg xmlns="http://www.w3.org/2000/svg" viewBox="0 0 24 24" fill="currentColor" class="w-6 h-6">
  <path d="M2.25 2.25a.75.75 0 000 1.5h1.386c.17 0 .318.114.362.278l2.558 9.592a3.752 3.752 0 00-2.806 3.63c0 .414.336.75.75.75h15.75a.75.75 0 000-1.5H5.378A2.25 2.25 0 017.5 15h11.218a.75.75 0 00.674-.421 60.358 60.358 0 002.46-5.23c.18-.487.18-1.035 0-1.522a3.75 3.75 0 00-3.118-2.651H6.118a.75.75 0 00-.744.625l-1.7-6.375A.75.75 0 002.25 2.25z" />
  <path d="M8.25 19.5a1.5 1.5 0 10-3 0 1.5 1.5 0 003 0zM18.75 19.5a1.5 1.5 0 10-3 0 1.5 1.5 0 003 0z" />
</svg>
